<svg viewBox="0 0 205 55" fill="none" xmlns="http://www.w3.org/2000/svg">
    <path fill-rule="evenodd" clip-rule="evenodd" d="M192.563 44.254V16.4376H205.003V10.746H172.806V16.4376H185.248V44.254H192.563ZM162.615 29.0822V36.6681C162.615 37.9317 161.991 38.5646 160.739 38.5646H150.424C147.923 38.5646 146.92 36.9835 146.92 33.8212C146.92 30.6612 147.923 29.08 150.424 29.08H162.615V29.0822ZM141.796 10.746V16.4376H157.989C161.114 16.4376 162.615 18.08 162.615 21.2423V23.3928H147.611C141.985 23.3928 139.358 27.5011 139.358 33.8234C139.358 40.7786 141.985 44.2562 147.611 44.2562H164.302C168.053 44.2562 169.928 42.3597 169.928 38.5668V20.6116C169.928 14.9222 166.866 10.7482 160.614 10.7482H141.796V10.746ZM111.161 17.8282H120.664C126.916 17.8282 128.04 22.7599 128.04 27.8164C128.04 34.7695 126.916 38.9413 119.41 38.9413C114.41 38.9413 111.159 36.92 111.159 31.2305V17.8282H111.161ZM133.669 5.68943V0H115.85C107.725 0 103.846 4.86821 103.846 13.087V31.2305C103.846 41.9765 108.911 44.6329 119.538 44.6329C132.668 44.6329 135.605 39.826 135.605 27.8164C135.605 17.0683 132.105 12.1388 122.288 12.1388H111.161C111.161 7.08222 114.224 5.68943 119.226 5.68943H133.669ZM75.6492 18.08C75.6492 17.007 76.3379 16.4376 77.5247 16.4376H83.714C90.7783 16.4376 91.5299 21.1153 91.5299 27.4354C91.5299 33.7577 90.7783 38.5646 83.714 38.5646H75.6492V18.08ZM73.9622 10.746C70.2114 10.746 68.3359 12.6424 68.3359 16.4376V55H75.6492V44.254H85.5267C96.1556 44.254 99.0944 37.5529 99.0944 27.4354C99.0944 17.3223 96.1579 10.746 85.5267 10.746H73.9622Z" fill="#E2061A"/>
    <path fill-rule="evenodd" clip-rule="evenodd" d="M2.08506 0H61.2483C62.3998 0 63.3333 0.933511 63.3333 2.08506V52.9149C63.3333 54.0665 62.3998 55 61.2483 55H2.08505C0.93351 55 0 54.0665 0 52.9149V2.08506C0 0.933511 0.933511 0 2.08506 0ZM40.0482 37.1119V29.087V29.0847H27.1417C24.4963 29.0847 23.4348 30.7573 23.4348 34.1003C23.4348 37.4455 24.4963 39.1182 27.1417 39.1182H38.063C39.3857 39.1182 40.0482 38.4486 40.0482 37.1119ZM18.011 15.7106V9.69186H37.93C44.5483 9.69186 47.7898 14.1074 47.7898 20.1261V39.1205C47.7898 43.1329 45.8045 45.1392 41.834 45.1392H24.1662C18.2081 45.1392 15.4297 41.4603 15.4297 34.1026C15.4297 27.4144 18.2081 23.0683 24.1662 23.0683H40.0482V20.7933C40.0482 17.4481 38.4595 15.7106 35.1492 15.7106H18.011Z" fill="#E2061A"/>
</svg>
