<svg viewBox="0 0 13 19" fill="none" xmlns="http://www.w3.org/2000/svg">
    <path fill-rule="evenodd" clip-rule="evenodd" d="M5.82267 17.9122L0.568176 9.40979C0.568176 9.40979 -1.07385 6.13964 1.22499 2.8695C3.52383 -0.400641 9.58656 -0.177049 11.734 2.8695C13.8814 5.91605 12.7192 8.75575 12.3908 9.40979C12.0624 10.0638 7.1363 17.9122 7.1363 17.9122C6.62312 18.6767 6.33582 18.7149 5.82267 17.9122ZM6.47957 9.40972C7.93056 9.40972 9.10682 8.23844 9.10682 6.7936C9.10682 5.34876 7.93056 4.17749 6.47957 4.17749C5.02858 4.17749 3.85233 5.34876 3.85233 6.7936C3.85233 8.23844 5.02858 9.40972 6.47957 9.40972Z" fill="#E2061A"/>
</svg>
