<svg viewBox="0 0 22 22" fill="none" xmlns="http://www.w3.org/2000/svg">
    <path d="M19.303 5.21767C18.6307 4.33434 17.681 3.70264 16.6065 3.42405C15.5319 3.14546 14.3949 3.23614 13.3781 3.68154C12.468 4.07427 11.6563 4.73642 10.998 5.61513C10.3398 4.73427 9.52809 4.07212 8.61801 3.68154C7.6012 3.23614 6.46419 3.14546 5.38964 3.42405C4.31508 3.70264 3.36536 4.33434 2.69305 5.21767C1.98406 6.14666 1.60938 7.30767 1.60938 8.57482C1.60938 10.3984 2.69691 12.399 4.84148 14.5234C6.58902 16.2538 8.6541 17.6709 9.72918 18.3614C10.108 18.6038 10.5483 18.7327 10.998 18.7327C11.4478 18.7327 11.8881 18.6038 12.2669 18.3614C13.3411 17.6709 15.4071 16.2538 17.1546 14.5234C19.2992 12.3999 20.3867 10.3984 20.3867 8.57482C20.3867 7.30767 20.012 6.14666 19.303 5.21767Z" fill="#E2061A"/>
</svg>
